1600 0 21 0           
3 SDE 19 ACIS 30.0.1 Unknown 24 Sat Sep  5 01:02:43 2026 
1 9.9999999999999995e-07 1e-10 
eye_refinement $21 -1 @5 grid  3 @3 tri 1 @4 surf 0 @3 adj 0 @4 grad 0 @9 postcheck 0 @4 stol 0 @4 ntol 15 @4 dsil 0 @8 flatness 0 @7 pixarea 0 @4 hmax 0 @6 gridar 0 @5 mgrid 2048 @5 ugrid 0 @5 vgrid 0 @10 end_fields #
wcs $22 -1 1 0 0 0 1 0 0 0 1 0 0 0 1 no_rotate no_reflect no_shear #
wcs $23 -1 0 1 0 0 0 1 1 0 0 0 0 0 1 rotate no_reflect no_shear #
wcs $24 -1 1 0 0 -0 0 1 0 -1 0 0 0 0 1 rotate no_reflect no_shear #
body $25 -1 -1 $-1 $26 $-1 $27 T 0 0 0 0.5 0.25 0 #
body $28 -1 -1 $-1 $29 $-1 $30 T -0.0050000000000000001 0.105 0 0 0.14499999999999999 0 #
body $31 -1 -1 $-1 $32 $-1 $33 T -0.070000000000000007 0.105 0 -0.0050000000000000001 0.14499999999999999 0 #
body $34 -1 -1 $-1 $35 $-1 $36 T -0.070000000000000007 0.070000000000000007 0 0 0.105 0 #
body $37 -1 -1 $-1 $38 $-1 $39 T -0.070000000000000007 0.14499999999999999 0 0 0.17999999999999999 0 #
body $40 -1 -1 $-1 $41 $-1 $42 T -0.01 0.01 0 0 0.070000000000000007 0 #
body $43 -1 -1 $-1 $44 $-1 $45 T -0.01 0.17999999999999999 0 0 0.23999999999999999 0 #
body $46 -1 -1 $-1 $47 $-1 $-1 T 0 0 0 0 0.070000000000000007 0 #
body $48 -1 -1 $-1 $49 $-1 $-1 T 0 0.17999999999999999 0 0 0.25 0 #
body $50 -1 -1 $-1 $51 $-1 $-1 T 0 0.050000000000000003 0 0 0.105 0 #
body $52 -1 -1 $-1 $53 $-1 $-1 T 0 0.14499999999999999 0 0 0.20000000000000001 0 #
body $54 -1 -1 $-1 $55 $-1 $-1 T 0 0.11 0 0 0.14499999999999999 0 #
body $56 -1 -1 $-1 $57 $-1 $58 T 0 0 0 0.45000000000000001 0.01 0 #
body $59 -1 -1 $-1 $60 $-1 $61 T 0 0.23999999999999999 0 0.45000000000000001 0.25 0 #
body $62 -1 -1 $-1 $63 $-1 $-1 T -0.070000000000000062 0 0 0.5 0.25 0 #
body $64 -1 -1 $-1 $65 $-1 $-1 T -0.070000000000000007 0 0 0.20000000000000001 0.25 0 #
body $66 -1 -1 $-1 $67 $-1 $-1 T -0.01 0.095000000000000001 0 0.01 0.155 0 #
name_attrib-gen-attrib $-1 -1 $-1 $-1 $0 2 1 1 1 1 1 1 1 1 1 1 1 1 1 0 1 1 1 @7 sde-ref #
entity_attrib-name_attrib-gen-attrib $-1 -1 $-1 $-1 $1 2 1 1 2 1 1 1 1 1 1 1 1 0 1 0 1 1 1 @4 base $1 #
entity_attrib-name_attrib-gen-attrib $-1 -1 $-1 $-1 $2 2 1 1 2 1 1 1 1 1 1 1 1 0 1 0 1 1 1 @5 wp_yz $1 #
entity_attrib-name_attrib-gen-attrib $-1 -1 $-1 $-1 $3 2 1 1 2 1 1 1 1 1 1 1 1 0 1 0 1 1 1 @5 wp_xz $1 #
string_attrib-name_attrib-gen-attrib $-1 -1 $68 $-1 $4 2 1 2 1 1 1 1 1 1 1 1 1 1 1 0 1 1 1 @12 transmission @5 black #
lump $-1 -1 -1 $-1 $-1 $69 $4 T 0 0 0 0.5 0.25 0 #
transform $-1 -1 1 0 0 0 1 0 0 0 1 0 0 0 1 no_rotate no_reflect no_shear #
string_attrib-name_attrib-gen-attrib $-1 -1 $70 $-1 $5 2 1 2 1 1 1 1 1 1 1 1 1 1 1 0 1 1 1 @12 transmission @5 black #
lump $-1 -1 -1 $-1 $-1 $71 $5 T -0.0050000000000000001 0.105 0 0 0.14499999999999999 0 #
transform $-1 -1 1 0 0 0 1 0 0 0 1 0 0 0 1 no_rotate no_reflect no_shear #
string_attrib-name_attrib-gen-attrib $-1 -1 $72 $-1 $6 2 1 2 1 1 1 1 1 1 1 1 1 1 1 0 1 1 1 @12 transmission @5 black #
lump $-1 -1 -1 $-1 $-1 $73 $6 T -0.070000000000000007 0.105 0 -0.0050000000000000001 0.14499999999999999 0 #
transform $-1 -1 1 0 0 0 1 0 0 0 1 0 0 0 1 no_rotate no_reflect no_shear #
string_attrib-name_attrib-gen-attrib $-1 -1 $74 $-1 $7 2 1 2 1 1 1 1 1 1 1 1 1 1 1 0 1 1 1 @12 transmission @5 black #
lump $-1 -1 -1 $-1 $-1 $75 $7 T -0.070000000000000007 0.070000000000000007 0 0 0.105 0 #
transform $-1 -1 1 0 0 0 1 0 0 0 1 0 0 0 1 no_rotate no_reflect no_shear #
string_attrib-name_attrib-gen-attrib $-1 -1 $76 $-1 $8 2 1 2 1 1 1 1 1 1 1 1 1 1 1 0 1 1 1 @12 transmission @5 black #
lump $-1 -1 -1 $-1 $-1 $77 $8 T -0.070000000000000007 0.14499999999999999 0 0 0.17999999999999999 0 #
transform $-1 -1 1 0 0 0 1 0 0 0 1 0 0 0 1 no_rotate no_reflect no_shear #
string_attrib-name_attrib-gen-attrib $-1 -1 $78 $-1 $9 2 1 2 1 1 1 1 1 1 1 1 1 1 1 0 1 1 1 @12 transmission @5 black #
lump $-1 -1 -1 $-1 $-1 $79 $9 T -0.01 0.01 0 0 0.070000000000000007 0 #
transform $-1 -1 1 0 0 0 1 0 0 0 1 0 0 0 1 no_rotate no_reflect no_shear #
string_attrib-name_attrib-gen-attrib $-1 -1 $80 $-1 $10 2 1 2 1 1 1 1 1 1 1 1 1 1 1 0 1 1 1 @12 transmission @5 black #
lump $-1 -1 -1 $-1 $-1 $81 $10 T -0.01 0.17999999999999999 0 0 0.23999999999999999 0 #
transform $-1 -1 1 0 0 0 1 0 0 0 1 0 0 0 1 no_rotate no_reflect no_shear #
string_attrib-name_attrib-gen-attrib $-1 -1 $82 $-1 $11 2 1 2 1 1 1 1 1 1 1 1 1 1 1 0 1 1 1 @3 DRS @7 BL.SD.L #
lump $-1 -1 -1 $-1 $-1 $83 $11 T 0 0 0 0 0.070000000000000007 0 #
string_attrib-name_attrib-gen-attrib $-1 -1 $84 $-1 $12 2 1 2 1 1 1 1 1 1 1 1 1 1 1 0 1 1 1 @3 DRS @7 BL.SD.R #
lump $-1 -1 -1 $-1 $-1 $85 $12 T 0 0.17999999999999999 0 0 0.25 0 #
string_attrib-name_attrib-gen-attrib $-1 -1 $86 $-1 $13 2 1 2 1 1 1 1 1 1 1 1 1 1 1 0 1 1 1 @3 DRS @8 BL.LLD.L #
lump $-1 -1 -1 $-1 $-1 $87 $13 T 0 0.050000000000000003 0 0 0.105 0 #
string_attrib-name_attrib-gen-attrib $-1 -1 $88 $-1 $14 2 1 2 1 1 1 1 1 1 1 1 1 1 1 0 1 1 1 @3 DRS @8 BL.LLD.R #
lump $-1 -1 -1 $-1 $-1 $89 $14 T 0 0.14499999999999999 0 0 0.20000000000000001 0 #
string_attrib-name_attrib-gen-attrib $-1 -1 $90 $-1 $15 2 1 2 1 1 1 1 1 1 1 1 1 1 1 0 1 1 1 @3 DRS @7 BL.Well #
lump $-1 -1 -1 $-1 $-1 $91 $15 T 0 0.11 0 0 0.14499999999999999 0 #
string_attrib-name_attrib-gen-attrib $-1 -1 $92 $-1 $16 2 1 2 1 1 1 1 1 1 1 1 1 1 1 0 1 1 1 @12 transmission @5 black #
lump $-1 -1 -1 $-1 $-1 $93 $16 T 0 0 0 0.45000000000000001 0.01 0 #
transform $-1 -1 1 0 0 0 1 0 0 0 1 0 0 0 1 no_rotate no_reflect no_shear #
string_attrib-name_attrib-gen-attrib $-1 -1 $94 $-1 $17 2 1 2 1 1 1 1 1 1 1 1 1 1 1 0 1 1 1 @12 transmission @5 black #
lump $-1 -1 -1 $-1 $-1 $95 $17 T 0 0.23999999999999999 0 0.45000000000000001 0.25 0 #
transform $-1 -1 1 0 0 0 1 0 0 0 1 0 0 0 1 no_rotate no_reflect no_shear #
string_attrib-name_attrib-gen-attrib $-1 -1 $96 $-1 $18 2 1 2 1 1 1 1 1 1 1 1 1 1 1 0 1 1 1 @3 DRS @10 Global_Win #
lump $-1 -1 -1 $-1 $-1 $97 $18 T -0.070000000000000062 0 0 0.5 0.25 0 #
string_attrib-name_attrib-gen-attrib $-1 -1 $98 $-1 $19 2 1 2 1 1 1 1 1 1 1 1 1 1 1 0 1 1 1 @3 DRS @9 Upper_Win #
lump $-1 -1 -1 $-1 $-1 $99 $19 T -0.070000000000000007 0 0 0.20000000000000001 0.25 0 #
string_attrib-name_attrib-gen-attrib $-1 -1 $100 $-1 $20 2 1 2 1 1 1 1 1 1 1 1 1 1 1 0 1 1 1 @3 DRS @8 Gate_Win #
lump $-1 -1 -1 $-1 $-1 $101 $20 T -0.01 0.095000000000000001 0 0.01 0.155 0 #
string_attrib-name_attrib-gen-attrib $-1 -1 $102 $25 $4 2 1 2 1 1 1 1 1 1 1 1 1 1 1 0 1 1 1 @6 region @11 R.Substrate #
shell $-1 -1 -1 $-1 $-1 $-1 $103 $-1 $26 T 0 0 0 0.5 0.25 0 #
string_attrib-name_attrib-gen-attrib $-1 -1 $104 $28 $5 2 1 2 1 1 1 1 1 1 1 1 1 1 1 0 1 1 1 @6 region @8 R.GateOx #
shell $-1 -1 -1 $-1 $-1 $-1 $105 $-1 $29 T -0.0050000000000000001 0.105 0 0 0.14499999999999999 0 #
string_attrib-name_attrib-gen-attrib $-1 -1 $106 $31 $6 2 1 2 1 1 1 1 1 1 1 1 1 1 1 0 1 1 1 @6 region @6 R.Poly #
shell $-1 -1 -1 $-1 $-1 $-1 $107 $-1 $32 T -0.070000000000000007 0.105 0 -0.0050000000000000001 0.14499999999999999 0 #
string_attrib-name_attrib-gen-attrib $-1 -1 $108 $34 $7 2 1 2 1 1 1 1 1 1 1 1 1 1 1 0 1 1 1 @6 region @13 R.Spacer.Left #
shell $-1 -1 -1 $-1 $-1 $-1 $109 $-1 $35 T -0.070000000000000007 0.070000000000000007 0 0 0.105 0 #
string_attrib-name_attrib-gen-attrib $-1 -1 $110 $37 $8 2 1 2 1 1 1 1 1 1 1 1 1 1 1 0 1 1 1 @6 region @14 R.Spacer.Right #
shell $-1 -1 -1 $-1 $-1 $-1 $111 $-1 $38 T -0.070000000000000007 0.14499999999999999 0 0 0.17999999999999999 0 #
string_attrib-name_attrib-gen-attrib $-1 -1 $112 $40 $9 2 1 2 1 1 1 1 1 1 1 1 1 1 1 0 1 1 1 @6 region @15 R.Silicide.Left #
shell $-1 -1 -1 $-1 $-1 $-1 $113 $-1 $41 T -0.01 0.01 0 0 0.070000000000000007 0 #
string_attrib-name_attrib-gen-attrib $-1 -1 $114 $43 $10 2 1 2 1 1 1 1 1 1 1 1 1 1 1 0 1 1 1 @6 region @16 R.Silicide.Right #
shell $-1 -1 -1 $-1 $-1 $-1 $115 $-1 $44 T -0.01 0.17999999999999999 0 0 0.23999999999999999 0 #
string_attrib-name_attrib-gen-attrib $-1 -1 $116 $46 $11 2 1 2 1 1 1 1 1 1 1 1 1 1 1 0 1 1 1 @12 transmission @4 gray #
shell $-1 -1 -1 $-1 $-1 $-1 $-1 $117 $47 T 0 0 0 0 0.070000000000000007 0 #
string_attrib-name_attrib-gen-attrib $-1 -1 $118 $48 $12 2 1 2 1 1 1 1 1 1 1 1 1 1 1 0 1 1 1 @12 transmission @4 gray #
shell $-1 -1 -1 $-1 $-1 $-1 $-1 $119 $49 T 0 0.17999999999999999 0 0 0.25 0 #
string_attrib-name_attrib-gen-attrib $-1 -1 $120 $50 $13 2 1 2 1 1 1 1 1 1 1 1 1 1 1 0 1 1 1 @12 transmission @4 gray #
shell $-1 -1 -1 $-1 $-1 $-1 $-1 $121 $51 T 0 0.050000000000000003 0 0 0.105 0 #
string_attrib-name_attrib-gen-attrib $-1 -1 $122 $52 $14 2 1 2 1 1 1 1 1 1 1 1 1 1 1 0 1 1 1 @12 transmission @4 gray #
shell $-1 -1 -1 $-1 $-1 $-1 $-1 $123 $53 T 0 0.14499999999999999 0 0 0.20000000000000001 0 #
string_attrib-name_attrib-gen-attrib $-1 -1 $124 $54 $15 2 1 2 1 1 1 1 1 1 1 1 1 1 1 0 1 1 1 @12 transmission @4 gray #
shell $-1 -1 -1 $-1 $-1 $-1 $-1 $125 $55 T 0 0.11 0 0 0.14499999999999999 0 #
string_attrib-name_attrib-gen-attrib $-1 -1 $126 $56 $16 2 1 2 1 1 1 1 1 1 1 1 1 1 1 0 1 1 1 @6 region @10 R.STI.Left #
shell $-1 -1 -1 $-1 $-1 $-1 $127 $-1 $57 T 0 0 0 0.45000000000000001 0.01 0 #
string_attrib-name_attrib-gen-attrib $-1 -1 $128 $59 $17 2 1 2 1 1 1 1 1 1 1 1 1 1 1 0 1 1 1 @6 region @11 R.STI.Right #
shell $-1 -1 -1 $-1 $-1 $-1 $129 $-1 $60 T 0 0.23999999999999999 0 0.45000000000000001 0.25 0 #
string_attrib-name_attrib-gen-attrib $-1 -1 $130 $62 $18 2 1 2 1 1 1 1 1 1 1 1 1 1 1 0 1 1 1 @12 transmission @4 gray #
shell $-1 -1 -1 $-1 $-1 $-1 $131 $-1 $63 T -0.070000000000000062 0 0 0.5 0.25 0 #
string_attrib-name_attrib-gen-attrib $-1 -1 $132 $64 $19 2 1 2 1 1 1 1 1 1 1 1 1 1 1 0 1 1 1 @12 transmission @4 gray #
shell $-1 -1 -1 $-1 $-1 $-1 $133 $-1 $65 T -0.070000000000000007 0 0 0.20000000000000001 0.25 0 #
string_attrib-name_attrib-gen-attrib $-1 -1 $134 $66 $20 2 1 2 1 1 1 1 1 1 1 1 1 1 1 0 1 1 1 @12 transmission @4 gray #
shell $-1 -1 -1 $-1 $-1 $-1 $135 $-1 $67 T -0.01 0.095000000000000001 0 0.01 0.155 0 #
string_attrib-name_attrib-gen-attrib $-1 -1 $136 $68 $4 2 1 2 1 1 1 1 1 1 1 1 1 1 1 0 1 1 1 @8 material @7 Silicon #
face $-1 -1 -1 $-1 $-1 $137 $69 $-1 $138 forward double out F F #
string_attrib-name_attrib-gen-attrib $-1 -1 $139 $70 $5 2 1 2 1 1 1 1 1 1 1 1 1 1 1 0 1 1 1 @8 material @5 Oxide #
face $-1 -1 -1 $-1 $-1 $140 $71 $-1 $141 forward double out T -0.0050000000000000001 0.105 0 0 0.14499999999999999 0 F #
string_attrib-name_attrib-gen-attrib $-1 -1 $142 $72 $6 2 1 2 1 1 1 1 1 1 1 1 1 1 1 0 1 1 1 @8 material @11 PolySilicon #
face $-1 -1 -1 $-1 $-1 $143 $73 $-1 $144 forward double out T -0.070000000000000007 0.105 0 -0.0050000000000000001 0.14499999999999999 0 F #
string_attrib-name_attrib-gen-attrib $-1 -1 $145 $74 $7 2 1 2 1 1 1 1 1 1 1 1 1 1 1 0 1 1 1 @8 material @7 Nitride #
face $-1 -1 -1 $-1 $-1 $146 $75 $-1 $147 forward double out T -0.070000000000000007 0.070000000000000007 0 0 0.105 0 F #
string_attrib-name_attrib-gen-attrib $-1 -1 $148 $76 $8 2 1 2 1 1 1 1 1 1 1 1 1 1 1 0 1 1 1 @8 material @7 Nitride #
face $-1 -1 -1 $-1 $-1 $149 $77 $-1 $150 forward double out T -0.070000000000000007 0.14499999999999999 0 0 0.17999999999999999 0 F #
string_attrib-name_attrib-gen-attrib $-1 -1 $151 $78 $9 2 1 2 1 1 1 1 1 1 1 1 1 1 1 0 1 1 1 @8 material @8 Silicide #
face $-1 -1 -1 $-1 $-1 $152 $79 $-1 $153 forward double out T -0.01 0.01 0 0 0.070000000000000007 0 F #
string_attrib-name_attrib-gen-attrib $-1 -1 $154 $80 $10 2 1 2 1 1 1 1 1 1 1 1 1 1 1 0 1 1 1 @8 material @8 Silicide #
face $-1 -1 -1 $-1 $-1 $155 $81 $-1 $156 forward double out T -0.01 0.17999999999999999 0 0 0.23999999999999999 0 F #
render-rbase-attrib $-1 -1 $-1 $82 $11 1 1 1 1 1 1 1 1 1 1 1 1 0 1 0 1 1 1 $157 $-1 0 0 #
wire $-1 -1 -1 $-1 $-1 $158 $83 $-1 out T 0 0 0 0 0.070000000000000007 0 #
render-rbase-attrib $-1 -1 $-1 $84 $12 1 1 1 1 1 1 1 1 1 1 1 1 0 1 0 1 1 1 $159 $-1 0 0 #
wire $-1 -1 -1 $-1 $-1 $160 $85 $-1 out T 0 0.17999999999999999 0 0 0.25 0 #
render-rbase-attrib $-1 -1 $-1 $86 $13 1 1 1 1 1 1 1 1 1 1 1 1 0 1 0 1 1 1 $161 $-1 0 0 #
wire $-1 -1 -1 $-1 $-1 $162 $87 $-1 out T 0 0.050000000000000003 0 0 0.105 0 #
render-rbase-attrib $-1 -1 $-1 $88 $14 1 1 1 1 1 1 1 1 1 1 1 1 0 1 0 1 1 1 $163 $-1 0 0 #
wire $-1 -1 -1 $-1 $-1 $164 $89 $-1 out T 0 0.14499999999999999 0 0 0.20000000000000001 0 #
render-rbase-attrib $-1 -1 $-1 $90 $15 1 1 1 1 1 1 1 1 1 1 1 1 0 1 0 1 1 1 $165 $-1 0 0 #
wire $-1 -1 -1 $-1 $-1 $166 $91 $-1 out T 0 0.11 0 0 0.14499999999999999 0 #
string_attrib-name_attrib-gen-attrib $-1 -1 $167 $92 $16 2 1 2 1 1 1 1 1 1 1 1 1 1 1 0 1 1 1 @8 material @5 Oxide #
face $-1 -1 -1 $-1 $-1 $168 $93 $-1 $169 forward double out T 0 0 0 0.45000000000000001 0.01 0 F #
string_attrib-name_attrib-gen-attrib $-1 -1 $170 $94 $17 2 1 2 1 1 1 1 1 1 1 1 1 1 1 0 1 1 1 @8 material @5 Oxide #
face $-1 -1 -1 $-1 $-1 $171 $95 $-1 $172 forward double out T 0 0.23999999999999999 0 0.45000000000000001 0.25 0 F #
render-rbase-attrib $-1 -1 $-1 $96 $18 1 1 1 1 1 1 1 1 1 1 1 1 0 1 0 1 1 1 $173 $-1 0 0 #
face $-1 -1 -1 $-1 $-1 $174 $97 $-1 $175 forward double out F F #
render-rbase-attrib $-1 -1 $-1 $98 $19 1 1 1 1 1 1 1 1 1 1 1 1 0 1 0 1 1 1 $176 $-1 0 0 #
face $-1 -1 -1 $-1 $-1 $177 $99 $-1 $178 forward double out F F #
render-rbase-attrib $-1 -1 $-1 $100 $20 1 1 1 1 1 1 1 1 1 1 1 1 0 1 0 1 1 1 $179 $-1 0 0 #
face $-1 -1 -1 $-1 $-1 $180 $101 $-1 $181 forward double out F F #
rgb_color-st-attrib $-1 -1 $-1 $102 $4 2 1 2 1 1 1 1 1 1 1 1 1 1 1 0 1 1 1 1 0.71372549019607845 0.75686274509803919 #
loop $-1 -1 -1 $-1 $-1 $182 $103 T 0 0 0 0.5 0.25 0 unknown #
plane-surface $-1 -1 -1 $-1 0.25 0.12499999999999999 0 0 0 1 1 0 0 forward_v I I I I #
rgb_color-st-attrib $-1 -1 $-1 $104 $5 2 1 2 1 1 1 1 1 1 1 1 1 1 1 0 1 1 1 0.49019607843137253 0.019607843137254902 0.019607843137254902 #
loop $-1 -1 -1 $-1 $-1 $183 $105 T -0.0050000000000000001 0.105 0 0 0.14499999999999999 0 periphery $141 F #
plane-surface $-1 -1 -1 $-1 -0.0025000000000000001 0.125 0 0 0 1 1 0 0 forward_v I I I I #
rgb_color-st-attrib $-1 -1 $-1 $106 $6 2 1 2 1 1 1 1 1 1 1 1 1 1 1 0 1 1 1 0.7803921568627451 0.082352941176470587 0.52156862745098043 #
loop $-1 -1 -1 $-1 $-1 $184 $107 T -0.070000000000000007 0.105 0 -0.0050000000000000001 0.14499999999999999 0 periphery $144 F #
plane-surface $-1 -1 -1 $-1 -0.037500000000000012 0.125 0 0 0 1 1 0 0 forward_v I I I I #
rgb_color-st-attrib $-1 -1 $-1 $108 $7 2 1 2 1 1 1 1 1 1 1 1 1 1 1 0 1 1 1 0.81568627450980391 0.62745098039215685 0.019607843137254902 #
loop $-1 -1 -1 $-1 $-1 $185 $109 T -0.070000000000000007 0.070000000000000007 0 0 0.105 0 unknown #
plane-surface $-1 -1 -1 $-1 -0.032292961828411369 0.089063940150050494 0 0 0 1 1 0 0 forward_v I I I I #
rgb_color-st-attrib $-1 -1 $-1 $110 $8 2 1 2 1 1 1 1 1 1 1 1 1 1 1 0 1 1 1 0.81568627450980391 0.62745098039215685 0.019607843137254902 #
loop $-1 -1 -1 $-1 $-1 $186 $111 T -0.070000000000000007 0.14499999999999999 0 0 0.17999999999999999 0 unknown #
plane-surface $-1 -1 -1 $-1 -0.032292961828411369 0.16093605984994949 0 0 0 1 1 0 0 forward_v I I I I #
rgb_color-st-attrib $-1 -1 $-1 $112 $9 2 1 2 1 1 1 1 1 1 1 1 1 1 1 0 1 1 1 0.80392156862745101 0.78431372549019607 0.69411764705882351 #
loop $-1 -1 -1 $-1 $-1 $187 $113 T -0.01 0.01 0 0 0.070000000000000007 0 unknown #
plane-surface $-1 -1 -1 $-1 -0.0049999999999999992 0.040000000000000001 0 0 0 1 1 0 0 forward_v I I I I #
rgb_color-st-attrib $-1 -1 $-1 $114 $10 2 1 2 1 1 1 1 1 1 1 1 1 1 1 0 1 1 1 0.80392156862745101 0.78431372549019607 0.69411764705882351 #
loop $-1 -1 -1 $-1 $-1 $188 $115 T -0.01 0.17999999999999999 0 0 0.23999999999999999 0 unknown #
plane-surface $-1 -1 -1 $-1 -0.0049999999999999992 0.20999999999999999 0 0 0 1 1 0 0 forward_v I I I I #
rh_material-rh_entity $-1 -1 4 0 @5 plain @5 color -4 0 1 0 @5 phong @14 ambient factor -2 1 @14 diffuse factor -2 0.75 @15 specular factor -2 0.5 @8 exponent -2 10 @14 specular color -4 1 1 1 @4 none @4 none #
coedge $-1 -1 -1 $-1 $158 $158 $-1 $189 forward $117 $-1 #
rh_material-rh_entity $-1 -1 4 0 @5 plain @5 color -4 0 1 0 @5 phong @14 ambient factor -2 1 @14 diffuse factor -2 0.75 @15 specular factor -2 0.5 @8 exponent -2 10 @14 specular color -4 1 1 1 @4 none @4 none #
coedge $-1 -1 -1 $-1 $160 $160 $-1 $190 forward $119 $-1 #
rh_material-rh_entity $-1 -1 4 0 @5 plain @5 color -4 0 1 0 @5 phong @14 ambient factor -2 1 @14 diffuse factor -2 0.75 @15 specular factor -2 0.5 @8 exponent -2 10 @14 specular color -4 1 1 1 @4 none @4 none #
coedge $-1 -1 -1 $-1 $162 $162 $-1 $191 forward $121 $-1 #
rh_material-rh_entity $-1 -1 4 0 @5 plain @5 color -4 0 1 0 @5 phong @14 ambient factor -2 1 @14 diffuse factor -2 0.75 @15 specular factor -2 0.5 @8 exponent -2 10 @14 specular color -4 1 1 1 @4 none @4 none #
coedge $-1 -1 -1 $-1 $164 $164 $-1 $192 forward $123 $-1 #
rh_material-rh_entity $-1 -1 4 0 @5 plain @5 color -4 0 1 0 @5 phong @14 ambient factor -2 1 @14 diffuse factor -2 0.75 @15 specular factor -2 0.5 @8 exponent -2 10 @14 specular color -4 1 1 1 @4 none @4 none #
coedge $-1 -1 -1 $-1 $166 $166 $-1 $193 forward $125 $-1 #
rgb_color-st-attrib $-1 -1 $-1 $126 $16 2 1 2 1 1 1 1 1 1 1 1 1 1 1 0 1 1 1 0.49019607843137253 0.019607843137254902 0.019607843137254902 #
loop $-1 -1 -1 $-1 $-1 $194 $127 T 0 0 0 0.45000000000000001 0.01 0 unknown #
plane-surface $-1 -1 -1 $-1 0.22499999999999998 0.0049999999999999992 0 0 0 1 1 0 0 forward_v I I I I #
rgb_color-st-attrib $-1 -1 $-1 $128 $17 2 1 2 1 1 1 1 1 1 1 1 1 1 1 0 1 1 1 0.49019607843137253 0.019607843137254902 0.019607843137254902 #
loop $-1 -1 -1 $-1 $-1 $195 $129 T 0 0.23999999999999999 0 0.45000000000000001 0.25 0 unknown #
plane-surface $-1 -1 -1 $-1 0.22499999999999998 0.24500000000000002 0 0 0 1 1 0 0 forward_v I I I I #
rh_material-rh_entity $-1 -1 4 0 @5 plain @5 color -4 0 1 0 @5 phong @14 ambient factor -2 1 @14 diffuse factor -2 0.75 @15 specular factor -2 0.5 @8 exponent -2 10 @14 specular color -4 1 1 1 @4 none @4 none #
loop $-1 -1 -1 $-1 $-1 $196 $131 T -0.070000000000000062 0 0 0.5 0.25 0 periphery $175 F #
plane-surface $-1 -1 -1 $-1 0.21499999999999997 0.125 0 0 0 1 1 0 0 forward_v I I I I #
rh_material-rh_entity $-1 -1 4 0 @5 plain @5 color -4 0 1 0 @5 phong @14 ambient factor -2 1 @14 diffuse factor -2 0.75 @15 specular factor -2 0.5 @8 exponent -2 10 @14 specular color -4 1 1 1 @4 none @4 none #
loop $-1 -1 -1 $-1 $-1 $197 $133 T -0.070000000000000007 0 0 0.20000000000000001 0.25 0 periphery $178 F #
plane-surface $-1 -1 -1 $-1 0.065000000000000002 0.125 0 0 0 1 1 0 0 forward_v I I I I #
rh_material-rh_entity $-1 -1 4 0 @5 plain @5 color -4 0 1 0 @5 phong @14 ambient factor -2 1 @14 diffuse factor -2 0.75 @15 specular factor -2 0.5 @8 exponent -2 10 @14 specular color -4 1 1 1 @4 none @4 none #
loop $-1 -1 -1 $-1 $-1 $198 $135 T -0.01 0.095000000000000001 0 0.01 0.155 0 periphery $181 F #
plane-surface $-1 -1 -1 $-1 0 0.125 0 0 0 1 1 0 0 forward_v I I I I #
coedge $-1 -1 -1 $-1 $199 $200 $-1 $201 forward $137 $-1 #
coedge $-1 -1 -1 $-1 $202 $203 $-1 $204 forward $140 $-1 #
coedge $-1 -1 -1 $-1 $205 $206 $-1 $207 forward $143 $-1 #
coedge $-1 -1 -1 $-1 $208 $209 $-1 $210 reversed $146 $-1 #
coedge $-1 -1 -1 $-1 $211 $212 $-1 $213 reversed $149 $-1 #
coedge $-1 -1 -1 $-1 $214 $215 $-1 $216 forward $152 $-1 #
coedge $-1 -1 -1 $-1 $217 $218 $-1 $219 forward $155 $-1 #
edge $-1 -1 -1 $-1 $220 0 $221 0.070000000000000007 $158 $222 forward @7 unknown T 0 0 0 0 0.070000000000000007 0 #
edge $-1 -1 -1 $-1 $223 0 $224 0.070000000000000007 $160 $225 forward @7 unknown T 0 0.17999999999999999 0 0 0.25 0 #
edge $-1 -1 -1 $-1 $226 0 $227 0.054999999999999993 $162 $228 forward @7 unknown T 0 0.050000000000000003 0 0 0.105 0 #
edge $-1 -1 -1 $-1 $229 0 $230 0.055000000000000021 $164 $231 forward @7 unknown T 0 0.14499999999999999 0 0 0.20000000000000001 0 #
edge $-1 -1 -1 $-1 $232 0 $233 0.034999999999999989 $166 $234 forward @7 unknown T 0 0.11 0 0 0.14499999999999999 0 #
coedge $-1 -1 -1 $-1 $235 $236 $-1 $237 forward $168 $-1 #
coedge $-1 -1 -1 $-1 $238 $239 $-1 $240 forward $171 $-1 #
coedge $-1 -1 -1 $-1 $241 $242 $-1 $243 forward $174 $-1 #
coedge $-1 -1 -1 $-1 $244 $245 $-1 $246 forward $177 $-1 #
coedge $-1 -1 -1 $-1 $247 $248 $-1 $249 forward $180 $-1 #
coedge $-1 -1 -1 $-1 $250 $182 $-1 $251 forward $137 $-1 #
coedge $-1 -1 -1 $-1 $182 $252 $-1 $253 forward $137 $-1 #
edge $-1 -1 -1 $-1 $254 -0.010000000000000009 $255 -0 $182 $256 forward @7 unknown T 0.45000000000000001 0.23999999999999999 0 0.45000000000000001 0.25 0 #
coedge $-1 -1 -1 $-1 $257 $183 $-1 $258 forward $140 $-1 #
coedge $-1 -1 -1 $-1 $183 $257 $-1 $259 forward $140 $-1 #
edge $-1 -1 -1 $-1 $260 0 $261 0.0050000000000000001 $183 $262 forward @7 unknown T -0.0050000000000000001 0.105 0 0 0.105 0 #
coedge $-1 -1 -1 $-1 $263 $184 $-1 $264 forward $143 $-1 #
coedge $-1 -1 -1 $-1 $184 $263 $-1 $265 forward $143 $-1 #
edge $-1 -1 -1 $-1 $266 0 $267 0.065000000000000002 $184 $268 forward @7 unknown T -0.070000000000000007 0.105 0 -0.0050000000000000001 0.105 0 #
coedge $-1 -1 -1 $-1 $269 $185 $-1 $270 reversed $146 $-1 #
coedge $-1 -1 -1 $-1 $185 $271 $-1 $272 reversed $146 $-1 #
edge $-1 -1 -1 $-1 $273 0 $274 0.034999999999999989 $185 $275 forward @7 unknown T 0 0.070000000000000007 0 0 0.105 0 #
coedge $-1 -1 -1 $-1 $276 $186 $-1 $277 reversed $149 $-1 #
coedge $-1 -1 -1 $-1 $186 $278 $-1 $279 reversed $149 $-1 #
edge $-1 -1 -1 $-1 $280 0 $281 0.035000000000000003 $186 $282 forward @7 unknown T 0 0.14499999999999999 0 0 0.17999999999999999 0 #
coedge $-1 -1 -1 $-1 $283 $187 $-1 $284 forward $152 $-1 #
coedge $-1 -1 -1 $-1 $187 $283 $-1 $285 forward $152 $-1 #
edge $-1 -1 -1 $-1 $286 0 $287 0.01 $187 $288 forward @7 unknown T -0.01 0.01 0 0 0.01 0 #
coedge $-1 -1 -1 $-1 $289 $188 $-1 $290 forward $155 $-1 #
coedge $-1 -1 -1 $-1 $188 $289 $-1 $291 forward $155 $-1 #
edge $-1 -1 -1 $-1 $292 0 $293 0.01 $188 $294 forward @7 unknown T -0.01 0.17999999999999999 0 0 0.17999999999999999 0 #
vertex $-1 -1 -1 $-1 $189 $295 #
vertex $-1 -1 -1 $-1 $189 $296 #
straight-curve $-1 -1 -1 $-1 0 0 0 0 1 0 I I #
vertex $-1 -1 -1 $-1 $190 $297 #
vertex $-1 -1 -1 $-1 $190 $298 #
straight-curve $-1 -1 -1 $-1 0 0.17999999999999999 0 0 1 0 I I #
vertex $-1 -1 -1 $-1 $191 $299 #
vertex $-1 -1 -1 $-1 $191 $300 #
straight-curve $-1 -1 -1 $-1 0 0.050000000000000003 0 0 1 0 I I #
vertex $-1 -1 -1 $-1 $192 $301 #
vertex $-1 -1 -1 $-1 $192 $302 #
straight-curve $-1 -1 -1 $-1 0 0.14499999999999999 0 0 1 0 I I #
vertex $-1 -1 -1 $-1 $193 $303 #
vertex $-1 -1 -1 $-1 $193 $304 #
straight-curve $-1 -1 -1 $-1 0 0.11 0 0 1 0 I I #
coedge $-1 -1 -1 $-1 $305 $194 $-1 $306 forward $168 $-1 #
coedge $-1 -1 -1 $-1 $194 $305 $-1 $307 forward $168 $-1 #
edge $-1 -1 -1 $-1 $308 0 $309 0.45000000000000001 $194 $310 forward @7 unknown T 0 0 0 0.45000000000000001 0 0 #
coedge $-1 -1 -1 $-1 $311 $195 $-1 $312 forward $171 $-1 #
coedge $-1 -1 -1 $-1 $195 $311 $-1 $313 forward $171 $-1 #
edge $-1 -1 -1 $-1 $314 0 $315 0.45000000000000001 $195 $316 forward @7 unknown T 0 0.23999999999999999 0 0.45000000000000001 0.23999999999999999 0 #
coedge $-1 -1 -1 $-1 $317 $196 $-1 $318 forward $174 $-1 #
coedge $-1 -1 -1 $-1 $196 $317 $-1 $319 forward $174 $-1 #
edge $-1 -1 -1 $-1 $320 0 $321 0.57000000000000006 $196 $322 forward @7 unknown T -0.070000000000000007 0 0 0.5 0 0 #
coedge $-1 -1 -1 $-1 $323 $197 $-1 $324 forward $177 $-1 #
coedge $-1 -1 -1 $-1 $197 $323 $-1 $325 forward $177 $-1 #
edge $-1 -1 -1 $-1 $326 0 $327 0.27000000000000002 $197 $328 forward @7 unknown T -0.070000000000000007 0 0 0.20000000000000001 0 0 #
coedge $-1 -1 -1 $-1 $329 $198 $-1 $330 forward $180 $-1 #
coedge $-1 -1 -1 $-1 $198 $329 $-1 $331 forward $180 $-1 #
edge $-1 -1 -1 $-1 $332 0 $333 0.02 $198 $334 forward @7 unknown T -0.01 0.095000000000000001 0 0.01 0.095000000000000001 0 #
coedge $-1 -1 -1 $-1 $335 $199 $-1 $336 forward $137 $-1 #
edge $-1 -1 -1 $-1 $255 -0.45000000000000001 $337 -0 $199 $338 forward @7 unknown T 0 0.23999999999999999 0 0.45000000000000001 0.23999999999999999 0 #
coedge $-1 -1 -1 $-1 $200 $339 $-1 $340 forward $137 $-1 #
edge $-1 -1 -1 $-1 $341 0 $254 0.049999999999999989 $200 $342 forward @7 unknown T 0.45000000000000001 0.25 0 0.5 0.25 0 #
vertex $-1 -1 -1 $-1 $201 $343 #
vertex $-1 -1 -1 $-1 $251 $344 #
straight-curve $-1 -1 -1 $-1 0.45000000000000001 0.23999999999999999 0 -0 -1 -0 F -0.010000000000000009 F -0 #
coedge $-1 -1 -1 $-1 $203 $202 $-1 $345 forward $140 $-1 #
edge $-1 -1 -1 $-1 $261 0 $346 0.039999999999999994 $202 $347 forward @7 unknown T 0 0.105 0 0 0.14499999999999999 0 #
edge $-1 -1 -1 $-1 $348 0 $260 0.039999999999999994 $203 $349 forward @7 unknown T -0.0050000000000000001 0.105 0 -0.0050000000000000001 0.14499999999999999 0 #
vertex $-1 -1 -1 $-1 $204 $350 #
vertex $-1 -1 -1 $-1 $204 $351 #
straight-curve $-1 -1 -1 $-1 -0.0050000000000000001 0.105 0 1 0 0 I I #
coedge $-1 -1 -1 $-1 $206 $205 $-1 $352 forward $143 $-1 #
edge $-1 -1 -1 $-1 $267 0 $353 0.039999999999999994 $205 $354 forward @7 unknown T -0.0050000000000000001 0.105 0 -0.0050000000000000001 0.14499999999999999 0 #
edge $355 -1 -1 $-1 $356 0 $266 0.039999999999999994 $206 $357 forward @7 unknown T -0.070000000000000007 0.105 0 -0.070000000000000007 0.14499999999999999 0 #
vertex $358 -1 -1 $-1 $207 $359 #
vertex $-1 -1 -1 $-1 $207 $360 #
straight-curve $-1 -1 -1 $-1 -0.070000000000000007 0.105 0 1 0 0 I I #
coedge $-1 -1 -1 $-1 $361 $208 $-1 $362 reversed $146 $-1 #
edge $-1 -1 -1 $-1 $363 0.065000000000000002 $273 0.070000000000000007 $208 $364 forward @7 unknown T -0.0050000000000000044 0.105 0 0 0.105 0 #
coedge $-1 -1 -1 $-1 $209 $365 $-1 $366 reversed $146 $-1 #
edge $-1 -1 -1 $-1 $274 0 $367 0.01 $209 $368 forward @7 unknown T -0.01 0.070000000000000007 0 0 0.070000000000000007 0 #
vertex $-1 -1 -1 $-1 $210 $369 #
vertex $-1 -1 -1 $-1 $210 $370 #
straight-curve $-1 -1 -1 $-1 0 0.105 0 0 -1 0 I I #
coedge $-1 -1 -1 $-1 $371 $211 $-1 $372 reversed $149 $-1 #
edge $-1 -1 -1 $-1 $373 0.060000000000000005 $280 0.070000000000000007 $211 $374 forward @7 unknown T -0.010000000000000002 0.17999999999999999 0 0 0.17999999999999999 0 #
coedge $-1 -1 -1 $-1 $212 $375 $-1 $376 reversed $149 $-1 #
edge $-1 -1 -1 $-1 $281 0 $377 0.0050000000000000001 $212 $378 forward @7 unknown T -0.0050000000000000001 0.14499999999999999 0 0 0.14499999999999999 0 #
vertex $-1 -1 -1 $-1 $213 $379 #
vertex $-1 -1 -1 $-1 $213 $380 #
straight-curve $-1 -1 -1 $-1 0 0.17999999999999999 0 0 -1 0 I I #
coedge $-1 -1 -1 $-1 $215 $214 $-1 $381 forward $152 $-1 #
edge $-1 -1 -1 $-1 $287 0 $382 0.060000000000000005 $214 $383 forward @7 unknown T 0 0.01 0 0 0.070000000000000007 0 #
edge $384 -1 -1 $-1 $385 0 $286 0.060000000000000005 $215 $386 forward @7 unknown T -0.01 0.01 0 -0.01 0.070000000000000007 0 #
vertex $387 -1 -1 $-1 $216 $388 #
vertex $-1 -1 -1 $-1 $216 $389 #
straight-curve $-1 -1 -1 $-1 -0.01 0.01 0 1 0 0 I I #
coedge $-1 -1 -1 $-1 $218 $217 $-1 $390 forward $155 $-1 #
edge $-1 -1 -1 $-1 $293 0 $391 0.059999999999999998 $217 $392 forward @7 unknown T 0 0.17999999999999999 0 0 0.23999999999999999 0 #
edge $393 -1 -1 $-1 $394 0 $292 0.059999999999999998 $218 $395 forward @7 unknown T -0.01 0.17999999999999999 0 -0.01 0.23999999999999999 0 #
vertex $396 -1 -1 $-1 $219 $397 #
vertex $-1 -1 -1 $-1 $219 $398 #
straight-curve $-1 -1 -1 $-1 -0.01 0.17999999999999999 0 1 0 0 I I #
point $-1 -1 -1 $-1 0 0 0 #
point $-1 -1 -1 $-1 0 0.070000000000000007 0 #
point $-1 -1 -1 $-1 0 0.17999999999999999 0 #
point $-1 -1 -1 $-1 0 0.25 0 #
point $-1 -1 -1 $-1 0 0.050000000000000003 0 #
point $-1 -1 -1 $-1 0 0.105 0 #
point $-1 -1 -1 $-1 0 0.14499999999999999 0 #
point $-1 -1 -1 $-1 0 0.20000000000000001 0 #
point $-1 -1 -1 $-1 0 0.11 0 #
point $-1 -1 -1 $-1 0 0.14499999999999999 0 #
coedge $-1 -1 -1 $-1 $236 $235 $-1 $399 forward $168 $-1 #
edge $-1 -1 -1 $-1 $309 0 $400 0.01 $235 $401 forward @7 unknown T 0.45000000000000001 0 0 0.45000000000000001 0.01 0 #
edge $-1 -1 -1 $-1 $402 0 $308 0.01 $236 $403 forward @7 unknown T 0 0 0 0 0.01 0 #
vertex $-1 -1 -1 $-1 $237 $404 #
vertex $-1 -1 -1 $-1 $237 $405 #
straight-curve $-1 -1 -1 $-1 0 0 0 1 0 0 I I #
coedge $-1 -1 -1 $-1 $239 $238 $-1 $406 forward $171 $-1 #
edge $-1 -1 -1 $-1 $315 0 $407 0.010000000000000009 $238 $408 forward @7 unknown T 0.45000000000000001 0.23999999999999999 0 0.45000000000000001 0.25 0 #
edge $-1 -1 -1 $-1 $409 0 $314 0.010000000000000009 $239 $410 forward @7 unknown T 0 0.23999999999999999 0 0 0.25 0 #
vertex $-1 -1 -1 $-1 $240 $411 #
vertex $-1 -1 -1 $-1 $240 $412 #
straight-curve $-1 -1 -1 $-1 0 0.23999999999999999 0 1 0 0 I I #
coedge $-1 -1 -1 $-1 $242 $241 $-1 $413 forward $174 $-1 #
edge $-1 -1 -1 $-1 $321 0 $414 0.25 $241 $415 forward @7 unknown T 0.5 0 0 0.5 0.25 0 #
edge $-1 -1 -1 $-1 $416 0 $320 0.25 $242 $417 forward @7 unknown T -0.070000000000000007 0 0 -0.070000000000000007 0.25 0 #
vertex $-1 -1 -1 $-1 $243 $418 #
vertex $-1 -1 -1 $-1 $243 $419 #
straight-curve $-1 -1 -1 $-1 -0.070000000000000007 0 0 1 0 0 I I #
coedge $-1 -1 -1 $-1 $245 $244 $-1 $420 forward $177 $-1 #
edge $-1 -1 -1 $-1 $327 0 $421 0.25 $244 $422 forward @7 unknown T 0.20000000000000001 0 0 0.20000000000000001 0.25 0 #
edge $-1 -1 -1 $-1 $423 0 $326 0.25 $245 $424 forward @7 unknown T -0.070000000000000007 0 0 -0.070000000000000007 0.25 0 #
vertex $-1 -1 -1 $-1 $246 $425 #
vertex $-1 -1 -1 $-1 $246 $426 #
straight-curve $-1 -1 -1 $-1 -0.070000000000000007 0 0 1 0 0 I I #
coedge $-1 -1 -1 $-1 $248 $247 $-1 $427 forward $180 $-1 #
edge $-1 -1 -1 $-1 $333 0 $428 0.059999999999999998 $247 $429 forward @7 unknown T 0.01 0.095000000000000001 0 0.01 0.155 0 #
edge $-1 -1 -1 $-1 $430 0 $332 0.059999999999999998 $248 $431 forward @7 unknown T -0.01 0.095000000000000001 0 -0.01 0.155 0 #
vertex $-1 -1 -1 $-1 $249 $432 #
vertex $-1 -1 -1 $-1 $249 $433 #
straight-curve $-1 -1 -1 $-1 -0.01 0.095000000000000001 0 1 0 0 I I #
coedge $-1 -1 -1 $-1 $434 $250 $-1 $435 forward $137 $-1 #
edge $-1 -1 -1 $-1 $337 0.010000000000000009 $436 0.070000000000000007 $250 $437 forward @7 unknown T 0 0.17999999999999999 0 0 0.23999999999999999 0 #
vertex $-1 -1 -1 $-1 $336 $438 #
straight-curve $-1 -1 -1 $-1 0 0.23999999999999999 0 -1 -0 -0 F -0.45000000000000001 F -0 #
coedge $-1 -1 -1 $-1 $252 $439 $-1 $440 forward $137 $-1 #
edge $-1 -1 -1 $-1 $441 0 $341 0.25 $252 $442 forward @7 unknown T 0.5 0 0 0.5 0.25 0 #
vertex $-1 -1 -1 $-1 $340 $443 #
straight-curve $-1 -1 -1 $-1 0.5 0.25 0 -1 0 0 I I #
point $-1 -1 -1 $-1 0.45000000000000001 0.25 0 #
point $-1 -1 -1 $-1 0.45000000000000001 0.23999999999999999 0 #
edge $-1 -1 -1 $-1 $346 0 $348 0.0050000000000000001 $257 $444 forward @7 unknown T -0.0050000000000000001 0.14499999999999999 0 0 0.14499999999999999 0 #
vertex $-1 -1 -1 $-1 $258 $445 #
straight-curve $-1 -1 -1 $-1 0 0.105 0 0 1 0 I I #
vertex $-1 -1 -1 $-1 $345 $446 #
straight-curve $-1 -1 -1 $-1 -0.0050000000000000001 0.14499999999999999 0 0 -1 0 I I #
point $-1 -1 -1 $-1 -0.0050000000000000001 0.105 0 #
point $-1 -1 -1 $-1 0 0.105 0 #
edge $-1 -1 -1 $-1 $353 0 $356 0.065000000000000002 $263 $447 forward @7 unknown T -0.070000000000000007 0.14499999999999999 0 -0.0050000000000000001 0.14499999999999999 0 #
vertex $-1 -1 -1 $-1 $264 $448 #
straight-curve $-1 -1 -1 $-1 -0.0050000000000000001 0.105 0 0 1 0 I I #
no_merge_attribute-st-attrib $-1 -1 $449 $-1 $265 1 1 1 1 1 1 1 1 1 1 1 1 1 1 0 1 1 1 #
vertex $450 -1 -1 $-1 $352 $451 #
straight-curve $-1 -1 -1 $-1 -0.070000000000000007 0.14499999999999999 0 0 -1 0 I I #
no_merge_attribute-st-attrib $-1 -1 $-1 $-1 $266 1 1 1 1 1 1 1 1 1 1 1 1 1 1 0 1 1 1 #
point $-1 -1 -1 $-1 -0.070000000000000007 0.105 0 #
point $-1 -1 -1 $-1 -0.0050000000000000001 0.105 0 #
coedge $-1 -1 -1 $-1 $365 $269 $-1 $452 reversed $146 $-1 #
edge $-1 -1 -1 $-1 $453 0 $363 0.065000000000000002 $269 $454 forward @7 unknown T -0.070000000000000007 0.105 0 -0.0050000000000000001 0.105 0 #
vertex $-1 -1 -1 $-1 $270 $455 #
straight-curve $-1 -1 -1 $-1 -0.070000000000000007 0.105 0 1 0 0 I I #
coedge $-1 -1 -1 $-1 $271 $361 $-1 $456 forward $146 $-1 #
edge $-1 -1 -1 $-1 $367 0.01 $457 0.040000000000000008 $271 $458 forward @7 unknown T -0.040000000000000008 0.070000000000000007 0 -0.01 0.070000000000000007 0 #
vertex $-1 -1 -1 $-1 $366 $459 #
straight-curve $-1 -1 -1 $-1 0 0.070000000000000007 0 -1 0 0 I I #
point $-1 -1 -1 $-1 0 0.105 0 #
point $-1 -1 -1 $-1 0 0.070000000000000007 0 #
coedge $-1 -1 -1 $-1 $375 $276 $-1 $460 forward $149 $-1 #
edge $-1 -1 -1 $-1 $461 0.029999999999999999 $373 0.060000000000000005 $276 $462 forward @7 unknown T -0.040000000000000008 0.17999999999999999 0 -0.01 0.17999999999999999 0 #
vertex $-1 -1 -1 $-1 $277 $463 #
straight-curve $-1 -1 -1 $-1 -0.070000000000000007 0.17999999999999999 0 1 0 0 I I #
coedge $-1 -1 -1 $-1 $278 $371 $-1 $464 reversed $149 $-1 #
edge $-1 -1 -1 $-1 $377 0.0050000000000000001 $465 0.070000000000000007 $278 $466 forward @7 unknown T -0.070000000000000007 0.14499999999999999 0 -0.0050000000000000001 0.14499999999999999 0 #
vertex $-1 -1 -1 $-1 $376 $467 #
straight-curve $-1 -1 -1 $-1 0 0.14499999999999999 0 -1 0 0 I I #
point $-1 -1 -1 $-1 0 0.17999999999999999 0 #
point $-1 -1 -1 $-1 0 0.14499999999999999 0 #
edge $-1 -1 -1 $-1 $382 0 $385 0.01 $283 $468 forward @7 unknown T -0.01 0.070000000000000007 0 0 0.070000000000000007 0 #
vertex $-1 -1 -1 $-1 $284 $469 #
straight-curve $-1 -1 -1 $-1 0 0.01 0 0 1 0 I I #
no_merge_attribute-st-attrib $-1 -1 $470 $-1 $285 1 1 1 1 1 1 1 1 1 1 1 1 1 1 0 1 1 1 #
vertex $471 -1 -1 $-1 $381 $472 #
straight-curve $-1 -1 -1 $-1 -0.01 0.070000000000000007 0 0 -1 0 I I #
no_merge_attribute-st-attrib $-1 -1 $473 $-1 $286 1 1 1 1 1 1 1 1 1 1 1 1 1 1 0 1 1 1 #
point $-1 -1 -1 $-1 -0.01 0.01 0 #
point $-1 -1 -1 $-1 0 0.01 0 #
edge $-1 -1 -1 $-1 $391 0 $394 0.01 $289 $474 forward @7 unknown T -0.01 0.23999999999999999 0 0 0.23999999999999999 0 #
vertex $-1 -1 -1 $-1 $290 $475 #
straight-curve $-1 -1 -1 $-1 0 0.17999999999999999 0 0 1 0 I I #
no_merge_attribute-st-attrib $-1 -1 $476 $-1 $291 1 1 1 1 1 1 1 1 1 1 1 1 1 1 0 1 1 1 #
vertex $477 -1 -1 $-1 $390 $478 #
straight-curve $-1 -1 -1 $-1 -0.01 0.23999999999999999 0 0 -1 0 I I #
no_merge_attribute-st-attrib $-1 -1 $479 $-1 $292 1 1 1 1 1 1 1 1 1 1 1 1 1 1 0 1 1 1 #
point $-1 -1 -1 $-1 -0.01 0.17999999999999999 0 #
point $-1 -1 -1 $-1 0 0.17999999999999999 0 #
edge $-1 -1 -1 $-1 $400 0 $402 0.45000000000000001 $305 $480 forward @7 unknown T 0 0.01 0 0.45000000000000001 0.01 0 #
vertex $-1 -1 -1 $-1 $306 $481 #
straight-curve $-1 -1 -1 $-1 0.45000000000000001 0 0 0 1 0 I I #
vertex $-1 -1 -1 $-1 $399 $482 #
straight-curve $-1 -1 -1 $-1 0 0.01 0 0 -1 0 I I #
point $-1 -1 -1 $-1 0 0 0 #
point $-1 -1 -1 $-1 0.45000000000000001 0 0 #
edge $-1 -1 -1 $-1 $407 0 $409 0.45000000000000001 $311 $483 forward @7 unknown T 0 0.25 0 0.45000000000000001 0.25 0 #
vertex $-1 -1 -1 $-1 $312 $484 #
straight-curve $-1 -1 -1 $-1 0.45000000000000001 0.23999999999999999 0 0 1 0 I I #
vertex $-1 -1 -1 $-1 $406 $485 #
straight-curve $-1 -1 -1 $-1 0 0.25 0 0 -1 0 I I #
point $-1 -1 -1 $-1 0 0.23999999999999999 0 #
point $-1 -1 -1 $-1 0.45000000000000001 0.23999999999999999 0 #
edge $-1 -1 -1 $-1 $414 0 $416 0.57000000000000006 $317 $486 forward @7 unknown T -0.070000000000000062 0.25 0 0.5 0.25 0 #
vertex $-1 -1 -1 $-1 $318 $487 #
straight-curve $-1 -1 -1 $-1 0.5 0 0 0 1 0 I I #
vertex $-1 -1 -1 $-1 $413 $488 #
straight-curve $-1 -1 -1 $-1 -0.070000000000000007 0.25 0 0 -1 0 I I #
point $-1 -1 -1 $-1 -0.070000000000000007 0 0 #
point $-1 -1 -1 $-1 0.5 0 0 #
edge $-1 -1 -1 $-1 $421 0 $423 0.27000000000000002 $323 $489 forward @7 unknown T -0.070000000000000007 0.25 0 0.20000000000000001 0.25 0 #
vertex $-1 -1 -1 $-1 $324 $490 #
straight-curve $-1 -1 -1 $-1 0.20000000000000001 0 0 0 1 0 I I #
vertex $-1 -1 -1 $-1 $420 $491 #
straight-curve $-1 -1 -1 $-1 -0.070000000000000007 0.25 0 0 -1 0 I I #
point $-1 -1 -1 $-1 -0.070000000000000007 0 0 #
point $-1 -1 -1 $-1 0.20000000000000001 0 0 #
edge $-1 -1 -1 $-1 $428 0 $430 0.02 $329 $492 forward @7 unknown T -0.01 0.155 0 0.01 0.155 0 #
vertex $-1 -1 -1 $-1 $330 $493 #
straight-curve $-1 -1 -1 $-1 0.01 0.095000000000000001 0 0 1 0 I I #
vertex $-1 -1 -1 $-1 $427 $494 #
straight-curve $-1 -1 -1 $-1 -0.01 0.155 0 0 -1 0 I I #
point $-1 -1 -1 $-1 -0.01 0.095000000000000001 0 #
point $-1 -1 -1 $-1 0.01 0.095000000000000001 0 #
coedge $-1 -1 -1 $-1 $495 $335 $-1 $496 forward $137 $-1 #
edge $-1 -1 -1 $-1 $436 0.070000000000000007 $497 0.10500000000000001 $335 $498 forward @7 unknown T 0 0.14499999999999999 0 0 0.17999999999999999 0 #
vertex $-1 -1 -1 $-1 $435 $499 #
straight-curve $-1 -1 -1 $-1 0 0.25 0 0 -1 0 I I #
point $-1 -1 -1 $-1 0 0.23999999999999999 0 #
coedge $-1 -1 -1 $-1 $339 $500 $-1 $501 forward $137 $-1 #
edge $-1 -1 -1 $-1 $502 0.45000000000000001 $441 0.5 $339 $503 forward @7 unknown T 0.45000000000000001 0 0 0.5 0 0 #
vertex $-1 -1 -1 $-1 $440 $504 #
straight-curve $-1 -1 -1 $-1 0.5 0 0 0 1 0 I I #
point $-1 -1 -1 $-1 0.5 0.25 0 #
straight-curve $-1 -1 -1 $-1 0 0.14499999999999999 0 -1 0 0 I I #
point $-1 -1 -1 $-1 0 0.14499999999999999 0 #
point $-1 -1 -1 $-1 -0.0050000000000000001 0.14499999999999999 0 #
straight-curve $-1 -1 -1 $-1 -0.0050000000000000001 0.14499999999999999 0 -1 0 0 I I #
point $-1 -1 -1 $-1 -0.0050000000000000001 0.14499999999999999 0 #
no_merge_attribute-st-attrib $-1 -1 $505 $355 $265 1 1 1 1 1 1 1 1 1 1 1 1 1 1 0 1 1 1 #
no_merge_attribute-st-attrib $-1 -1 $-1 $-1 $356 1 1 1 1 1 1 1 1 1 1 1 1 1 1 0 1 1 1 #
point $-1 -1 -1 $-1 -0.070000000000000007 0.14499999999999999 0 #
edge $-1 -1 -1 $-1 $506 0.029999999999999999 $453 0.034999999999999989 $361 $507 forward @7 unknown T -0.070000000000000007 0.10000000000000001 0 -0.070000000000000007 0.105 0 #
vertex $-1 -1 -1 $-1 $362 $508 #
straight-curve $-1 -1 -1 $-1 -0.070000000000000007 0.105 0 1 0 0 I I #
point $-1 -1 -1 $-1 -0.0050000000000000001 0.105 0 #
edge $-1 -1 -1 $-1 $506 0 $457 1.5707963267948966 $365 $509 forward @7 unknown T -0.070000000000000007 0.070000000000000007 0 -0.040000000000000008 0.10000000000000001 0 #
vertex $-1 -1 -1 $-1 $456 $510 #
straight-curve $-1 -1 -1 $-1 0 0.070000000000000007 0 -1 0 0 I I #
point $-1 -1 -1 $-1 -0.01 0.070000000000000007 0 #
edge $-1 -1 -1 $-1 $461 0 $511 1.5707963267948966 $371 $512 forward @7 unknown T -0.070000000000000007 0.14999999999999999 0 -0.040000000000000008 0.17999999999999999 0 #
vertex $-1 -1 -1 $-1 $372 $513 #
straight-curve $-1 -1 -1 $-1 -0.070000000000000007 0.17999999999999999 0 1 0 0 I I #
point $-1 -1 -1 $-1 -0.01 0.17999999999999999 0 #
edge $-1 -1 -1 $-1 $465 0 $511 0.0050000000000000044 $375 $514 forward @7 unknown T -0.070000000000000007 0.14499999999999999 0 -0.070000000000000007 0.14999999999999999 0 #
vertex $-1 -1 -1 $-1 $464 $515 #
straight-curve $-1 -1 -1 $-1 0 0.14499999999999999 0 -1 0 0 I I #
point $-1 -1 -1 $-1 -0.0050000000000000001 0.14499999999999999 0 #
straight-curve $-1 -1 -1 $-1 0 0.070000000000000007 0 -1 0 0 I I #
point $-1 -1 -1 $-1 0 0.070000000000000007 0 #
no_merge_attribute-st-attrib $-1 -1 $516 $384 $285 1 1 1 1 1 1 1 1 1 1 1 1 1 1 0 1 1 1 #
no_merge_attribute-st-attrib $-1 -1 $517 $-1 $385 1 1 1 1 1 1 1 1 1 1 1 1 1 1 0 1 1 1 #
point $-1 -1 -1 $-1 -0.01 0.070000000000000007 0 #
no_merge_attribute-st-attrib $-1 -1 $518 $387 $286 1 1 1 1 1 1 1 1 1 1 1 1 1 1 0 1 1 1 #
straight-curve $-1 -1 -1 $-1 0 0.23999999999999999 0 -1 0 0 I I #
point $-1 -1 -1 $-1 0 0.23999999999999999 0 #
no_merge_attribute-st-attrib $-1 -1 $519 $393 $291 1 1 1 1 1 1 1 1 1 1 1 1 1 1 0 1 1 1 #
no_merge_attribute-st-attrib $-1 -1 $520 $-1 $394 1 1 1 1 1 1 1 1 1 1 1 1 1 1 0 1 1 1 #
point $-1 -1 -1 $-1 -0.01 0.23999999999999999 0 #
no_merge_attribute-st-attrib $-1 -1 $-1 $396 $292 1 1 1 1 1 1 1 1 1 1 1 1 1 1 0 1 1 1 #
straight-curve $-1 -1 -1 $-1 0.45000000000000001 0.01 0 -1 0 0 I I #
point $-1 -1 -1 $-1 0.45000000000000001 0.01 0 #
point $-1 -1 -1 $-1 0 0.01 0 #
straight-curve $-1 -1 -1 $-1 0.45000000000000001 0.25 0 -1 0 0 I I #
point $-1 -1 -1 $-1 0.45000000000000001 0.25 0 #
point $-1 -1 -1 $-1 0 0.25 0 #
straight-curve $-1 -1 -1 $-1 0.5 0.25 0 -1 0 0 I I #
point $-1 -1 -1 $-1 0.5 0.25 0 #
point $-1 -1 -1 $-1 -0.070000000000000007 0.25 0 #
straight-curve $-1 -1 -1 $-1 0.20000000000000001 0.25 0 -1 0 0 I I #
point $-1 -1 -1 $-1 0.20000000000000001 0.25 0 #
point $-1 -1 -1 $-1 -0.070000000000000007 0.25 0 #
straight-curve $-1 -1 -1 $-1 0.01 0.155 0 -1 0 0 I I #
point $-1 -1 -1 $-1 0.01 0.155 0 #
point $-1 -1 -1 $-1 -0.01 0.155 0 #
coedge $-1 -1 -1 $-1 $521 $434 $-1 $522 forward $137 $-1 #
edge $-1 -1 -1 $-1 $497 0.10500000000000001 $523 0.14500000000000002 $434 $524 forward @7 unknown T 0 0.10499999999999998 0 0 0.14499999999999999 0 #
vertex $-1 -1 -1 $-1 $496 $525 #
straight-curve $-1 -1 -1 $-1 0 0.25 0 0 -1 0 I I #
point $-1 -1 -1 $-1 0 0.17999999999999999 0 #
coedge $-1 -1 -1 $-1 $439 $521 $-1 $526 forward $137 $-1 #
edge $-1 -1 -1 $-1 $527 -0.01 $502 -0 $439 $528 forward @7 unknown T 0.45000000000000001 0 0 0.45000000000000001 0.01 0 #
vertex $-1 -1 -1 $-1 $440 $529 #
straight-curve $-1 -1 -1 $-1 0 0 0 1 0 0 I I #
point $-1 -1 -1 $-1 0.5 0 0 #
string_attrib-name_attrib-gen-attrib $-1 -1 $-1 $449 $265 2 4 2 1 1 1 1 1 1 1 1 1 1 1 0 1 1 1 @10 2d-contact @4 gate #
vertex $-1 -1 -1 $-1 $452 $530 #
straight-curve $-1 -1 -1 $-1 -0.070000000000000007 0.070000000000000007 0 0 1 0 I I #
point $-1 -1 -1 $-1 -0.070000000000000007 0.105 0 #
ellipse-curve $-1 -1 -1 $-1 -0.040000000000000008 0.10000000000000001 0 0 0 1 -0.029999999999999999 0 0 1 I I #
point $-1 -1 -1 $-1 -0.040000000000000008 0.070000000000000007 0 #
vertex $-1 -1 -1 $-1 $460 $531 #
ellipse-curve $-1 -1 -1 $-1 -0.040000000000000008 0.14999999999999999 0 -0 -0 1 0 0.029999999999999999 0 1 I I #
point $-1 -1 -1 $-1 -0.040000000000000008 0.17999999999999999 0 #
straight-curve $-1 -1 -1 $-1 -0.070000000000000007 0.14499999999999999 0 0 1 0 I I #
point $-1 -1 -1 $-1 -0.070000000000000007 0.14499999999999999 0 #
no_merge_attribute-st-attrib $-1 -1 $532 $470 $285 1 1 1 1 1 1 1 1 1 1 1 1 1 1 0 1 1 1 #
no_merge_attribute-st-attrib $-1 -1 $533 $471 $385 1 1 1 1 1 1 1 1 1 1 1 1 1 1 0 1 1 1 #
no_merge_attribute-st-attrib $-1 -1 $-1 $473 $286 1 1 1 1 1 1 1 1 1 1 1 1 1 1 0 1 1 1 #
no_merge_attribute-st-attrib $-1 -1 $534 $476 $291 1 1 1 1 1 1 1 1 1 1 1 1 1 1 0 1 1 1 #
no_merge_attribute-st-attrib $-1 -1 $-1 $477 $394 1 1 1 1 1 1 1 1 1 1 1 1 1 1 0 1 1 1 #
coedge $-1 -1 -1 $-1 $500 $495 $-1 $535 forward $137 $-1 #
edge $-1 -1 -1 $-1 $523 0.14500000000000002 $536 0.17999999999999999 $495 $537 forward @7 unknown T 0 0.070000000000000007 0 0 0.105 0 #
vertex $-1 -1 -1 $-1 $522 $538 #
straight-curve $-1 -1 -1 $-1 0 0.25 0 0 -1 0 I I #
point $-1 -1 -1 $-1 0 0.14499999999999999 0 #
edge $-1 -1 -1 $-1 $539 -0.45000000000000001 $527 0 $500 $540 forward @7 unknown T 0 0.01 0 0.45000000000000001 0.01 0 #
vertex $-1 -1 -1 $-1 $501 $541 #
straight-curve $-1 -1 -1 $-1 0.45000000000000001 0 0 -0 -1 -0 F -0.01 F -0 #
point $-1 -1 -1 $-1 0.45000000000000001 0 0 #
point $-1 -1 -1 $-1 -0.070000000000000007 0.10000000000000001 0 #
point $-1 -1 -1 $-1 -0.070000000000000007 0.14999999999999999 0 #
no_merge_attribute-st-attrib $-1 -1 $542 $516 $285 1 1 1 1 1 1 1 1 1 1 1 1 1 1 0 1 1 1 #
no_merge_attribute-st-attrib $-1 -1 $-1 $517 $385 1 1 1 1 1 1 1 1 1 1 1 1 1 1 0 1 1 1 #
string_attrib-name_attrib-gen-attrib $-1 -1 $-1 $519 $291 2 4 2 1 1 1 1 1 1 1 1 1 1 1 0 1 1 1 @10 2d-contact @5 drain #
edge $-1 -1 -1 $-1 $536 0.17999999999999999 $539 0.23999999999999999 $521 $543 forward @7 unknown T 0 0.01 0 0 0.070000000000000007 0 #
vertex $-1 -1 -1 $-1 $535 $544 #
straight-curve $-1 -1 -1 $-1 0 0.25 0 0 -1 0 I I #
point $-1 -1 -1 $-1 0 0.105 0 #
vertex $-1 -1 -1 $-1 $526 $545 #
straight-curve $-1 -1 -1 $-1 0.45000000000000001 0.01 0 1 -0 -0 F -0.45000000000000001 F -0 #
point $-1 -1 -1 $-1 0.45000000000000001 0.01 0 #
string_attrib-name_attrib-gen-attrib $-1 -1 $-1 $532 $285 2 4 2 1 1 1 1 1 1 1 1 1 1 1 0 1 1 1 @10 2d-contact @6 source #
straight-curve $-1 -1 -1 $-1 0 0.25 0 0 -1 0 I I #
point $-1 -1 -1 $-1 0 0.070000000000000007 0 #
point $-1 -1 -1 $-1 0 0.01 0 #
End-of-ACIS-data 